<svg width="512" height="512" viewBox="0 0 512 512" fill="none" xmlns="http://www.w3.org/2000/svg">
  <path d="M95.2 339.2C96.7 337.6 98.8 336.7 101 336.7H469.3C473.2 336.7 475.2 341.4 472.5 344.1L416.8 399.8C415.3 401.4 413.2 402.3 411 402.3H42.7C38.8 402.3 36.8 397.6 39.5 394.9L95.2 339.2Z" fill="#9945FF"/>
  <path d="M95.2 112.2C96.8 110.6 98.9 109.7 101 109.7H469.3C473.2 109.7 475.2 114.4 472.5 117.1L416.8 172.8C415.3 174.4 413.2 175.3 411 175.3H42.7C38.8 175.3 36.8 170.6 39.5 167.9L95.2 112.2Z" fill="#14F195"/>
  <path d="M416.8 225.7C415.3 224.1 413.2 223.2 411 223.2H42.7C38.8 223.2 36.8 227.9 39.5 230.6L95.2 286.3C96.7 287.9 98.8 288.8 101 288.8H469.3C473.2 288.8 475.2 284.1 472.5 281.4L416.8 225.7Z" fill="#00C2FF"/>
</svg>